<svg id="Layer_1" data-name="Layer 1" xmlns="http://www.w3.org/2000/svg" viewBox="0 0 171.54 222.12"><defs><style>.cls-1{fill:#231f20;}</style></defs><title>Untitled-1</title><path class="cls-1" d="M348.73,331.36c-9.42,15.78-18.76,34.22-20.16,52.86-.54,7.17-.95,15.19.26,22.3s6.66,14.87,14.59,14.54,10.17-7,10.22-13.55c0-6.41,1.58-14.32-4.52-18.47-15.18-10.33-28.34,10.11-40,16.36-7.86,4.22-16.94,4-22.79-3.33-4.83-6.05-6.47-14.24-7.64-21.71.76,4.84-.52,10.09,0,15,1.75,16.47,12.13,29.81,18.81,44.48a64.75,64.75,0,0,1,4,11c.44,1.77.69,3.53,1,5.32.85,5,1-13.59.09-7.36-.19,1.33-.31,2.65-.61,4A35.56,35.56,0,0,1,289.71,472c-30.81,25.4-71.74-1.68-89.2-29.76a102.47,102.47,0,0,1-14.63-41.35q-.19-1.54-.33-3.08-.17-1.8-.26-3.6-.22-4.52-.08,5.95c.55-2.88.39-6.06.77-9,.63-4.93-.62-10.1,0-15-2.46,19.4-1.86,40.72,4.35,59.36,6.75,20.28,20,38.85,38,50.57,17.32,11.27,40,15.54,58.06,3.39,7.94-5.35,14.19-13.47,15.92-23a86.47,86.47,0,0,0,.17-25.94c-3-21.81-21.39-38-23.74-60.15v15c1.19,7.63,2.88,16.1,8,22.16,6.61,7.79,16.58,6.65,24.56,1.58,8.27-5.25,14.53-14.5,24.37-17.07,7-1.83,17,.9,17.91,9.19l0-14.73c-.43,7.6-9,11.43-15.45,8.41a16.25,16.25,0,0,1-7-6.77,29.12,29.12,0,0,1-2.11-5.72q-.93-6.5-.34,5.88.13-1.38.36-2.75c2.7-17.51,10.73-34.12,19.72-49.19.86-1.44.07-5.82.07-7.5s-.94-6-.07-7.5Z" transform="translate(-184.63 -274.68)"/><path class="cls-1" d="M328.15,324.55l11.16,4c-.29-.1.08-6.86.07-7.5,0-1.77,0-3.54,0-5.3a10.84,10.84,0,0,0-.05-2.2l-11.16-4c.29.1-.08,6.86-.07,7.5,0,1.77,0,3.54,0,5.3a10.84,10.84,0,0,0,.05,2.2Z" transform="translate(-184.63 -274.68)"/><path class="cls-1" d="M337.92,316.07a39.74,39.74,0,0,1,18,3c-.34-.14.07-6.83.07-7.5s.53-7.25-.07-7.5a39.74,39.74,0,0,0-18-3c-.42,0,.2,15,0,15Z" transform="translate(-184.63 -274.68)"/><path class="cls-1" d="M318.48,289.68l11.37,12.26a15.12,15.12,0,0,1,.05-2.2c0-1.77,0-3.54,0-5.3s0-3.54,0-5.3c0-.41.2-1.92-.05-2.2l-11.37-12.26a15.12,15.12,0,0,1-.05,2.2c0,1.77,0,3.54,0,5.3s0,3.54,0,5.3c0,.41-.2,1.92.05,2.2Z" transform="translate(-184.63 -274.68)"/><path class="cls-1" d="M235.14,427.2l19.52,8.15c-.34-.14.07-6.83.07-7.5s.53-7.25-.07-7.5l-19.52-8.15c.34.14-.07,6.83-.07,7.5s-.53,7.25.07,7.5Z" transform="translate(-184.63 -274.68)"/></svg>